solid straight_slide_clip
  facet normal 0 0 -1
    outer loop
      vertex 0 0 0
      vertex 28 10 0
      vertex 28 0 0
    endloop
  endfacet
  facet normal 0 0 -1
    outer loop
      vertex 0 0 0
      vertex 0 10 0
      vertex 28 10 0
    endloop
  endfacet
  facet normal 0 0 1
    outer loop
      vertex 0 0 1.2
      vertex 28 0 1.2
      vertex 28 10 1.2
    endloop
  endfacet
  facet normal 0 0 1
    outer loop
      vertex 0 0 1.2
      vertex 28 10 1.2
      vertex 0 10 1.2
    endloop
  endfacet
  facet normal 0 -1 0
    outer loop
      vertex 0 0 0
      vertex 28 0 0
      vertex 28 0 1.2
    endloop
  endfacet
  facet normal 0 -1 0
    outer loop
      vertex 0 0 0
      vertex 28 0 1.2
      vertex 0 0 1.2
    endloop
  endfacet
  facet normal 1 0 0
    outer loop
      vertex 28 0 0
      vertex 28 10 0
      vertex 28 10 1.2
    endloop
  endfacet
  facet normal 1 0 0
    outer loop
      vertex 28 0 0
      vertex 28 10 1.2
      vertex 28 0 1.2
    endloop
  endfacet
  facet normal 0 1 0
    outer loop
      vertex 28 10 0
      vertex 0 10 0
      vertex 0 10 1.2
    endloop
  endfacet
  facet normal 0 1 -0
    outer loop
      vertex 28 10 0
      vertex 0 10 1.2
      vertex 28 10 1.2
    endloop
  endfacet
  facet normal -1 0 0
    outer loop
      vertex 0 10 0
      vertex 0 0 0
      vertex 0 0 1.2
    endloop
  endfacet
  facet normal -1 0 0
    outer loop
      vertex 0 10 0
      vertex 0 0 1.2
      vertex 0 10 1.2
    endloop
  endfacet
  facet normal 0 0 -1
    outer loop
      vertex 0 0 1.2
      vertex 28 3.5 1.2
      vertex 28 0 1.2
    endloop
  endfacet
  facet normal 0 0 -1
    outer loop
      vertex 0 0 1.2
      vertex 0 3.5 1.2
      vertex 28 3.5 1.2
    endloop
  endfacet
  facet normal 0 0 1
    outer loop
      vertex 0 0 9.2
      vertex 28 0 9.2
      vertex 28 3.5 9.2
    endloop
  endfacet
  facet normal 0 0 1
    outer loop
      vertex 0 0 9.2
      vertex 28 3.5 9.2
      vertex 0 3.5 9.2
    endloop
  endfacet
  facet normal 0 -1 0
    outer loop
      vertex 0 0 1.2
      vertex 28 0 1.2
      vertex 28 0 9.2
    endloop
  endfacet
  facet normal 0 -1 0
    outer loop
      vertex 0 0 1.2
      vertex 28 0 9.2
      vertex 0 0 9.2
    endloop
  endfacet
  facet normal 1 0 0
    outer loop
      vertex 28 0 1.2
      vertex 28 3.5 1.2
      vertex 28 3.5 9.2
    endloop
  endfacet
  facet normal 1 0 0
    outer loop
      vertex 28 0 1.2
      vertex 28 3.5 9.2
      vertex 28 0 9.2
    endloop
  endfacet
  facet normal 0 1 0
    outer loop
      vertex 28 3.5 1.2
      vertex 0 3.5 1.2
      vertex 0 3.5 9.2
    endloop
  endfacet
  facet normal 0 1 -0
    outer loop
      vertex 28 3.5 1.2
      vertex 0 3.5 9.2
      vertex 28 3.5 9.2
    endloop
  endfacet
  facet normal -1 0 0
    outer loop
      vertex 0 3.5 1.2
      vertex 0 0 1.2
      vertex 0 0 9.2
    endloop
  endfacet
  facet normal -1 0 0
    outer loop
      vertex 0 3.5 1.2
      vertex 0 0 9.2
      vertex 0 3.5 9.2
    endloop
  endfacet
  facet normal 0 0 -1
    outer loop
      vertex 0 6.5 1.2
      vertex 28 10 1.2
      vertex 28 6.5 1.2
    endloop
  endfacet
  facet normal 0 0 -1
    outer loop
      vertex 0 6.5 1.2
      vertex 0 10 1.2
      vertex 28 10 1.2
    endloop
  endfacet
  facet normal 0 0 1
    outer loop
      vertex 0 6.5 9.2
      vertex 28 6.5 9.2
      vertex 28 10 9.2
    endloop
  endfacet
  facet normal 0 0 1
    outer loop
      vertex 0 6.5 9.2
      vertex 28 10 9.2
      vertex 0 10 9.2
    endloop
  endfacet
  facet normal 0 -1 0
    outer loop
      vertex 0 6.5 1.2
      vertex 28 6.5 1.2
      vertex 28 6.5 9.2
    endloop
  endfacet
  facet normal 0 -1 0
    outer loop
      vertex 0 6.5 1.2
      vertex 28 6.5 9.2
      vertex 0 6.5 9.2
    endloop
  endfacet
  facet normal 1 0 0
    outer loop
      vertex 28 6.5 1.2
      vertex 28 10 1.2
      vertex 28 10 9.2
    endloop
  endfacet
  facet normal 1 0 0
    outer loop
      vertex 28 6.5 1.2
      vertex 28 10 9.2
      vertex 28 6.5 9.2
    endloop
  endfacet
  facet normal 0 1 0
    outer loop
      vertex 28 10 1.2
      vertex 0 10 1.2
      vertex 0 10 9.2
    endloop
  endfacet
  facet normal 0 1 -0
    outer loop
      vertex 28 10 1.2
      vertex 0 10 9.2
      vertex 28 10 9.2
    endloop
  endfacet
  facet normal -1 0 0
    outer loop
      vertex 0 10 1.2
      vertex 0 6.5 1.2
      vertex 0 6.5 9.2
    endloop
  endfacet
  facet normal -1 0 0
    outer loop
      vertex 0 10 1.2
      vertex 0 6.5 9.2
      vertex 0 10 9.2
    endloop
  endfacet
  facet normal 0 0 -1
    outer loop
      vertex 0 0 9.2
      vertex 28 3.2 9.2
      vertex 28 0 9.2
    endloop
  endfacet
  facet normal 0 0 -1
    outer loop
      vertex 0 0 9.2
      vertex 0 3.2 9.2
      vertex 28 3.2 9.2
    endloop
  endfacet
  facet normal 0 0 1
    outer loop
      vertex 0 0 11.2
      vertex 28 0 11.2
      vertex 28 3.2 11.2
    endloop
  endfacet
  facet normal 0 0 1
    outer loop
      vertex 0 0 11.2
      vertex 28 3.2 11.2
      vertex 0 3.2 11.2
    endloop
  endfacet
  facet normal 0 -1 0
    outer loop
      vertex 0 0 9.2
      vertex 28 0 9.2
      vertex 28 0 11.2
    endloop
  endfacet
  facet normal 0 -1 0
    outer loop
      vertex 0 0 9.2
      vertex 28 0 11.2
      vertex 0 0 11.2
    endloop
  endfacet
  facet normal 1 0 0
    outer loop
      vertex 28 0 9.2
      vertex 28 3.2 9.2
      vertex 28 3.2 11.2
    endloop
  endfacet
  facet normal 1 0 0
    outer loop
      vertex 28 0 9.2
      vertex 28 3.2 11.2
      vertex 28 0 11.2
    endloop
  endfacet
  facet normal 0 1 0
    outer loop
      vertex 28 3.2 9.2
      vertex 0 3.2 9.2
      vertex 0 3.2 11.2
    endloop
  endfacet
  facet normal 0 1 -0
    outer loop
      vertex 28 3.2 9.2
      vertex 0 3.2 11.2
      vertex 28 3.2 11.2
    endloop
  endfacet
  facet normal -1 0 0
    outer loop
      vertex 0 3.2 9.2
      vertex 0 0 9.2
      vertex 0 0 11.2
    endloop
  endfacet
  facet normal -1 0 0
    outer loop
      vertex 0 3.2 9.2
      vertex 0 0 11.2
      vertex 0 3.2 11.2
    endloop
  endfacet
  facet normal 0 0 -1
    outer loop
      vertex 0 6.8 9.2
      vertex 28 10 9.2
      vertex 28 6.8 9.2
    endloop
  endfacet
  facet normal 0 0 -1
    outer loop
      vertex 0 6.8 9.2
      vertex 0 10 9.2
      vertex 28 10 9.2
    endloop
  endfacet
  facet normal 0 0 1
    outer loop
      vertex 0 6.8 11.2
      vertex 28 6.8 11.2
      vertex 28 10 11.2
    endloop
  endfacet
  facet normal 0 0 1
    outer loop
      vertex 0 6.8 11.2
      vertex 28 10 11.2
      vertex 0 10 11.2
    endloop
  endfacet
  facet normal 0 -1 0
    outer loop
      vertex 0 6.8 9.2
      vertex 28 6.8 9.2
      vertex 28 6.8 11.2
    endloop
  endfacet
  facet normal 0 -1 0
    outer loop
      vertex 0 6.8 9.2
      vertex 28 6.8 11.2
      vertex 0 6.8 11.2
    endloop
  endfacet
  facet normal 1 0 0
    outer loop
      vertex 28 6.8 9.2
      vertex 28 10 9.2
      vertex 28 10 11.2
    endloop
  endfacet
  facet normal 1 0 0
    outer loop
      vertex 28 6.8 9.2
      vertex 28 10 11.2
      vertex 28 6.8 11.2
    endloop
  endfacet
  facet normal 0 1 0
    outer loop
      vertex 28 10 9.2
      vertex 0 10 9.2
      vertex 0 10 11.2
    endloop
  endfacet
  facet normal 0 1 -0
    outer loop
      vertex 28 10 9.2
      vertex 0 10 11.2
      vertex 28 10 11.2
    endloop
  endfacet
  facet normal -1 0 0
    outer loop
      vertex 0 10 9.2
      vertex 0 6.8 9.2
      vertex 0 6.8 11.2
    endloop
  endfacet
  facet normal -1 0 0
    outer loop
      vertex 0 10 9.2
      vertex 0 6.8 11.2
      vertex 0 10 11.2
    endloop
  endfacet
endsolid straight_slide_clip
