solid t_slide_clip
  facet normal 0 0 -1
    outer loop
      vertex 0 0 0
      vertex 16 16 0
      vertex 16 0 0
    endloop
  endfacet
  facet normal 0 0 -1
    outer loop
      vertex 0 0 0
      vertex 0 16 0
      vertex 16 16 0
    endloop
  endfacet
  facet normal 0 0 1
    outer loop
      vertex 0 0 1.2
      vertex 16 0 1.2
      vertex 16 16 1.2
    endloop
  endfacet
  facet normal 0 0 1
    outer loop
      vertex 0 0 1.2
      vertex 16 16 1.2
      vertex 0 16 1.2
    endloop
  endfacet
  facet normal 0 -1 0
    outer loop
      vertex 0 0 0
      vertex 16 0 0
      vertex 16 0 1.2
    endloop
  endfacet
  facet normal 0 -1 0
    outer loop
      vertex 0 0 0
      vertex 16 0 1.2
      vertex 0 0 1.2
    endloop
  endfacet
  facet normal 1 0 0
    outer loop
      vertex 16 0 0
      vertex 16 16 0
      vertex 16 16 1.2
    endloop
  endfacet
  facet normal 1 0 0
    outer loop
      vertex 16 0 0
      vertex 16 16 1.2
      vertex 16 0 1.2
    endloop
  endfacet
  facet normal 0 1 0
    outer loop
      vertex 16 16 0
      vertex 0 16 0
      vertex 0 16 1.2
    endloop
  endfacet
  facet normal 0 1 -0
    outer loop
      vertex 16 16 0
      vertex 0 16 1.2
      vertex 16 16 1.2
    endloop
  endfacet
  facet normal -1 0 0
    outer loop
      vertex 0 16 0
      vertex 0 0 0
      vertex 0 0 1.2
    endloop
  endfacet
  facet normal -1 0 0
    outer loop
      vertex 0 16 0
      vertex 0 0 1.2
      vertex 0 16 1.2
    endloop
  endfacet
  facet normal 0 0 -1
    outer loop
      vertex 0 9.5 1.2
      vertex 16 16 1.2
      vertex 16 9.5 1.2
    endloop
  endfacet
  facet normal 0 0 -1
    outer loop
      vertex 0 9.5 1.2
      vertex 0 16 1.2
      vertex 16 16 1.2
    endloop
  endfacet
  facet normal 0 0 1
    outer loop
      vertex 0 9.5 9.2
      vertex 16 9.5 9.2
      vertex 16 16 9.2
    endloop
  endfacet
  facet normal 0 0 1
    outer loop
      vertex 0 9.5 9.2
      vertex 16 16 9.2
      vertex 0 16 9.2
    endloop
  endfacet
  facet normal 0 -1 0
    outer loop
      vertex 0 9.5 1.2
      vertex 16 9.5 1.2
      vertex 16 9.5 9.2
    endloop
  endfacet
  facet normal 0 -1 0
    outer loop
      vertex 0 9.5 1.2
      vertex 16 9.5 9.2
      vertex 0 9.5 9.2
    endloop
  endfacet
  facet normal 1 0 0
    outer loop
      vertex 16 9.5 1.2
      vertex 16 16 1.2
      vertex 16 16 9.2
    endloop
  endfacet
  facet normal 1 0 0
    outer loop
      vertex 16 9.5 1.2
      vertex 16 16 9.2
      vertex 16 9.5 9.2
    endloop
  endfacet
  facet normal 0 1 0
    outer loop
      vertex 16 16 1.2
      vertex 0 16 1.2
      vertex 0 16 9.2
    endloop
  endfacet
  facet normal 0 1 -0
    outer loop
      vertex 16 16 1.2
      vertex 0 16 9.2
      vertex 16 16 9.2
    endloop
  endfacet
  facet normal -1 0 0
    outer loop
      vertex 0 16 1.2
      vertex 0 9.5 1.2
      vertex 0 9.5 9.2
    endloop
  endfacet
  facet normal -1 0 0
    outer loop
      vertex 0 16 1.2
      vertex 0 9.5 9.2
      vertex 0 16 9.2
    endloop
  endfacet
  facet normal 0 0 -1
    outer loop
      vertex 0 0 1.2
      vertex 6.5 6.5 1.2
      vertex 6.5 0 1.2
    endloop
  endfacet
  facet normal 0 0 -1
    outer loop
      vertex 0 0 1.2
      vertex 0 6.5 1.2
      vertex 6.5 6.5 1.2
    endloop
  endfacet
  facet normal 0 0 1
    outer loop
      vertex 0 0 9.2
      vertex 6.5 0 9.2
      vertex 6.5 6.5 9.2
    endloop
  endfacet
  facet normal 0 0 1
    outer loop
      vertex 0 0 9.2
      vertex 6.5 6.5 9.2
      vertex 0 6.5 9.2
    endloop
  endfacet
  facet normal 0 -1 0
    outer loop
      vertex 0 0 1.2
      vertex 6.5 0 1.2
      vertex 6.5 0 9.2
    endloop
  endfacet
  facet normal 0 -1 0
    outer loop
      vertex 0 0 1.2
      vertex 6.5 0 9.2
      vertex 0 0 9.2
    endloop
  endfacet
  facet normal 1 0 0
    outer loop
      vertex 6.5 0 1.2
      vertex 6.5 6.5 1.2
      vertex 6.5 6.5 9.2
    endloop
  endfacet
  facet normal 1 0 0
    outer loop
      vertex 6.5 0 1.2
      vertex 6.5 6.5 9.2
      vertex 6.5 0 9.2
    endloop
  endfacet
  facet normal 0 1 0
    outer loop
      vertex 6.5 6.5 1.2
      vertex 0 6.5 1.2
      vertex 0 6.5 9.2
    endloop
  endfacet
  facet normal 0 1 -0
    outer loop
      vertex 6.5 6.5 1.2
      vertex 0 6.5 9.2
      vertex 6.5 6.5 9.2
    endloop
  endfacet
  facet normal -1 0 0
    outer loop
      vertex 0 6.5 1.2
      vertex 0 0 1.2
      vertex 0 0 9.2
    endloop
  endfacet
  facet normal -1 0 0
    outer loop
      vertex 0 6.5 1.2
      vertex 0 0 9.2
      vertex 0 6.5 9.2
    endloop
  endfacet
  facet normal 0 0 -1
    outer loop
      vertex 9.5 0 1.2
      vertex 16 6.5 1.2
      vertex 16 0 1.2
    endloop
  endfacet
  facet normal 0 0 -1
    outer loop
      vertex 9.5 0 1.2
      vertex 9.5 6.5 1.2
      vertex 16 6.5 1.2
    endloop
  endfacet
  facet normal 0 0 1
    outer loop
      vertex 9.5 0 9.2
      vertex 16 0 9.2
      vertex 16 6.5 9.2
    endloop
  endfacet
  facet normal 0 0 1
    outer loop
      vertex 9.5 0 9.2
      vertex 16 6.5 9.2
      vertex 9.5 6.5 9.2
    endloop
  endfacet
  facet normal 0 -1 0
    outer loop
      vertex 9.5 0 1.2
      vertex 16 0 1.2
      vertex 16 0 9.2
    endloop
  endfacet
  facet normal 0 -1 0
    outer loop
      vertex 9.5 0 1.2
      vertex 16 0 9.2
      vertex 9.5 0 9.2
    endloop
  endfacet
  facet normal 1 0 0
    outer loop
      vertex 16 0 1.2
      vertex 16 6.5 1.2
      vertex 16 6.5 9.2
    endloop
  endfacet
  facet normal 1 0 0
    outer loop
      vertex 16 0 1.2
      vertex 16 6.5 9.2
      vertex 16 0 9.2
    endloop
  endfacet
  facet normal 0 1 0
    outer loop
      vertex 16 6.5 1.2
      vertex 9.5 6.5 1.2
      vertex 9.5 6.5 9.2
    endloop
  endfacet
  facet normal 0 1 -0
    outer loop
      vertex 16 6.5 1.2
      vertex 9.5 6.5 9.2
      vertex 16 6.5 9.2
    endloop
  endfacet
  facet normal -1 0 0
    outer loop
      vertex 9.5 6.5 1.2
      vertex 9.5 0 1.2
      vertex 9.5 0 9.2
    endloop
  endfacet
  facet normal -1 0 0
    outer loop
      vertex 9.5 6.5 1.2
      vertex 9.5 0 9.2
      vertex 9.5 6.5 9.2
    endloop
  endfacet
  facet normal 0 0 -1
    outer loop
      vertex 0 9.8 9.2
      vertex 16 16 9.2
      vertex 16 9.8 9.2
    endloop
  endfacet
  facet normal 0 0 -1
    outer loop
      vertex 0 9.8 9.2
      vertex 0 16 9.2
      vertex 16 16 9.2
    endloop
  endfacet
  facet normal 0 0 1
    outer loop
      vertex 0 9.8 11.2
      vertex 16 9.8 11.2
      vertex 16 16 11.2
    endloop
  endfacet
  facet normal 0 0 1
    outer loop
      vertex 0 9.8 11.2
      vertex 16 16 11.2
      vertex 0 16 11.2
    endloop
  endfacet
  facet normal 0 -1 0
    outer loop
      vertex 0 9.8 9.2
      vertex 16 9.8 9.2
      vertex 16 9.8 11.2
    endloop
  endfacet
  facet normal 0 -1 0
    outer loop
      vertex 0 9.8 9.2
      vertex 16 9.8 11.2
      vertex 0 9.8 11.2
    endloop
  endfacet
  facet normal 1 0 0
    outer loop
      vertex 16 9.8 9.2
      vertex 16 16 9.2
      vertex 16 16 11.2
    endloop
  endfacet
  facet normal 1 0 0
    outer loop
      vertex 16 9.8 9.2
      vertex 16 16 11.2
      vertex 16 9.8 11.2
    endloop
  endfacet
  facet normal 0 1 0
    outer loop
      vertex 16 16 9.2
      vertex 0 16 9.2
      vertex 0 16 11.2
    endloop
  endfacet
  facet normal 0 1 -0
    outer loop
      vertex 16 16 9.2
      vertex 0 16 11.2
      vertex 16 16 11.2
    endloop
  endfacet
  facet normal -1 0 0
    outer loop
      vertex 0 16 9.2
      vertex 0 9.8 9.2
      vertex 0 9.8 11.2
    endloop
  endfacet
  facet normal -1 0 0
    outer loop
      vertex 0 16 9.2
      vertex 0 9.8 11.2
      vertex 0 16 11.2
    endloop
  endfacet
  facet normal 0 0 -1
    outer loop
      vertex 0 0 9.2
      vertex 6.2 6.2 9.2
      vertex 6.2 0 9.2
    endloop
  endfacet
  facet normal 0 0 -1
    outer loop
      vertex 0 0 9.2
      vertex 0 6.2 9.2
      vertex 6.2 6.2 9.2
    endloop
  endfacet
  facet normal 0 0 1
    outer loop
      vertex 0 0 11.2
      vertex 6.2 0 11.2
      vertex 6.2 6.2 11.2
    endloop
  endfacet
  facet normal 0 0 1
    outer loop
      vertex 0 0 11.2
      vertex 6.2 6.2 11.2
      vertex 0 6.2 11.2
    endloop
  endfacet
  facet normal 0 -1 0
    outer loop
      vertex 0 0 9.2
      vertex 6.2 0 9.2
      vertex 6.2 0 11.2
    endloop
  endfacet
  facet normal 0 -1 0
    outer loop
      vertex 0 0 9.2
      vertex 6.2 0 11.2
      vertex 0 0 11.2
    endloop
  endfacet
  facet normal 1 0 0
    outer loop
      vertex 6.2 0 9.2
      vertex 6.2 6.2 9.2
      vertex 6.2 6.2 11.2
    endloop
  endfacet
  facet normal 1 0 0
    outer loop
      vertex 6.2 0 9.2
      vertex 6.2 6.2 11.2
      vertex 6.2 0 11.2
    endloop
  endfacet
  facet normal 0 1 0
    outer loop
      vertex 6.2 6.2 9.2
      vertex 0 6.2 9.2
      vertex 0 6.2 11.2
    endloop
  endfacet
  facet normal 0 1 -0
    outer loop
      vertex 6.2 6.2 9.2
      vertex 0 6.2 11.2
      vertex 6.2 6.2 11.2
    endloop
  endfacet
  facet normal -1 0 0
    outer loop
      vertex 0 6.2 9.2
      vertex 0 0 9.2
      vertex 0 0 11.2
    endloop
  endfacet
  facet normal -1 0 0
    outer loop
      vertex 0 6.2 9.2
      vertex 0 0 11.2
      vertex 0 6.2 11.2
    endloop
  endfacet
  facet normal 0 0 -1
    outer loop
      vertex 9.8 0 9.2
      vertex 16 6.2 9.2
      vertex 16 0 9.2
    endloop
  endfacet
  facet normal 0 0 -1
    outer loop
      vertex 9.8 0 9.2
      vertex 9.8 6.2 9.2
      vertex 16 6.2 9.2
    endloop
  endfacet
  facet normal 0 0 1
    outer loop
      vertex 9.8 0 11.2
      vertex 16 0 11.2
      vertex 16 6.2 11.2
    endloop
  endfacet
  facet normal 0 0 1
    outer loop
      vertex 9.8 0 11.2
      vertex 16 6.2 11.2
      vertex 9.8 6.2 11.2
    endloop
  endfacet
  facet normal 0 -1 0
    outer loop
      vertex 9.8 0 9.2
      vertex 16 0 9.2
      vertex 16 0 11.2
    endloop
  endfacet
  facet normal 0 -1 0
    outer loop
      vertex 9.8 0 9.2
      vertex 16 0 11.2
      vertex 9.8 0 11.2
    endloop
  endfacet
  facet normal 1 0 0
    outer loop
      vertex 16 0 9.2
      vertex 16 6.2 9.2
      vertex 16 6.2 11.2
    endloop
  endfacet
  facet normal 1 0 0
    outer loop
      vertex 16 0 9.2
      vertex 16 6.2 11.2
      vertex 16 0 11.2
    endloop
  endfacet
  facet normal 0 1 0
    outer loop
      vertex 16 6.2 9.2
      vertex 9.8 6.2 9.2
      vertex 9.8 6.2 11.2
    endloop
  endfacet
  facet normal 0 1 -0
    outer loop
      vertex 16 6.2 9.2
      vertex 9.8 6.2 11.2
      vertex 16 6.2 11.2
    endloop
  endfacet
  facet normal -1 0 0
    outer loop
      vertex 9.8 6.2 9.2
      vertex 9.8 0 9.2
      vertex 9.8 0 11.2
    endloop
  endfacet
  facet normal -1 0 0
    outer loop
      vertex 9.8 6.2 9.2
      vertex 9.8 0 11.2
      vertex 9.8 6.2 11.2
    endloop
  endfacet
endsolid t_slide_clip
